<?xml version="1.0" encoding="UTF-8" standalone="no"?>
<!-- Created with Vectornator (http://vectornator.io/) -->

<svg
   height="48mm"
   stroke-miterlimit="10"
   style="clip-rule:evenodd;fill-rule:nonzero;stroke-linecap:round;stroke-linejoin:round"
   version="1.1"
   viewBox="0 0 445.98426 181.41732"
   width="118mm"
   xml:space="preserve"
   id="svg980"
   sodipodi:docname="ASQ_logo_draft.svg"
   inkscape:version="1.1 (c4e8f9e, 2021-05-24)"
   xmlns:inkscape="http://www.inkscape.org/namespaces/inkscape"
   xmlns:sodipodi="http://sodipodi.sourceforge.net/DTD/sodipodi-0.dtd"
   xmlns="http://www.w3.org/2000/svg"
   xmlns:svg="http://www.w3.org/2000/svg"
   xmlns:vectornator="http://vectornator.io"><sodipodi:namedview
   id="namedview982"
   pagecolor="#ffffff"
   bordercolor="#666666"
   borderopacity="1.0"
   inkscape:pageshadow="2"
   inkscape:pageopacity="0.0"
   inkscape:pagecheckerboard="0"
   showgrid="false"
   units="mm"
   inkscape:zoom="0.63895866"
   inkscape:cx="420.21498"
   inkscape:cy="298.14135"
   inkscape:window-width="1663"
   inkscape:window-height="1003"
   inkscape:window-x="667"
   inkscape:window-y="185"
   inkscape:window-maximized="0"
   inkscape:current-layer="svg980"
   inkscape:document-units="mm" />
<metadata
   id="metadata920">
<vectornator:setting
   key="IsTimeLapseWatermarkDisabled"
   value="false" />
<vectornator:setting
   key="UndoHistoryDisabled"
   value="true" />
<vectornator:setting
   key="VNDimensionsVisible"
   value="true" />
<vectornator:setting
   key="VNSnapToGuides"
   value="true" />
<vectornator:setting
   key="WDCMYKEnabledKey"
   value="false" />
<vectornator:setting
   key="WDDisplayWhiteBackground"
   value="false" />
<vectornator:setting
   key="WDDynamicGuides"
   value="false" />
<vectornator:setting
   key="WDGuidesVisible"
   value="true" />
<vectornator:setting
   key="WDIsolateActiveLayer"
   value="false" />
<vectornator:setting
   key="WDOutlineMode"
   value="false" />
<vectornator:setting
   key="WDRulersVisible"
   value="true" />
<vectornator:setting
   key="WDSnapToEdges"
   value="true" />
<vectornator:setting
   key="WDSnapToGrid"
   value="false" />
<vectornator:setting
   key="WDSnapToPoints"
   value="true" />
<vectornator:setting
   key="WDUnits"
   value="Millimeters" />
</metadata>
<defs
   id="defs922" />
<g
   id="Layer-1"
   vectornator:layerName="Layer 1"
   transform="translate(-245.7123,-175.2852)">
<path
   d="m 364.987,333.967 c 0,0 24.255,-10.159 38.744,-28.034 14.49,-17.876 19.215,-43.469 19.215,-43.469"
   fill="none"
   fill-rule="evenodd"
   opacity="1"
   stroke="#595959"
   stroke-linecap="round"
   stroke-linejoin="round"
   stroke-opacity="0.70321"
   stroke-width="1"
   id="path924" />
<path
   d="m 492.244,335.227 c 0,0 24.254,-10.159 38.744,-28.034 14.489,-17.876 19.214,-43.469 19.214,-43.469"
   fill="none"
   fill-rule="evenodd"
   opacity="1"
   stroke="#595959"
   stroke-linecap="round"
   stroke-linejoin="round"
   stroke-width="1"
   id="path926" />
<path
   d="m 492.244,335.227 c 0,0 24.254,-10.159 38.744,-28.034 14.489,-17.876 19.214,-43.469 19.214,-43.469"
   fill="none"
   fill-rule="evenodd"
   opacity="1"
   stroke="#595959"
   stroke-linecap="round"
   stroke-linejoin="round"
   stroke-opacity="0.70321"
   stroke-width="1"
   id="path928" />
<g
   opacity="1"
   id="g934">
<path
   d="m 605.694,190.24 v 0 c 31.265,0 56.611,31.675 56.611,70.749 v 0 c 0,39.073 -25.346,70.749 -56.611,70.749 v 0 c -31.266,0 -56.611,-31.676 -56.611,-70.749 v 0 c 0,-39.074 25.345,-70.749 56.611,-70.749 z"
   fill="none"
   fill-rule="evenodd"
   opacity="1"
   stroke="#595959"
   stroke-linecap="round"
   stroke-linejoin="round"
   stroke-width="4"
   id="path930" />
<path
   d="m 626.091,288.413 c 0,0 8.111,10.552 20.159,22.995 12.049,12.442 28.664,8.189 28.664,8.189"
   fill="none"
   fill-rule="evenodd"
   opacity="1"
   stroke="#595959"
   stroke-linecap="round"
   stroke-linejoin="round"
   stroke-width="4"
   id="path932" />
</g>
<path
   d="m 491.887,194.467 c -31.3,-22.453 -83.077,-3.566 -80.917,34.259 2.395,41.932 47.57,35.313 47.57,35.313 0,0 41.848,-7.695 50.83,28.867 9.354,38.072 -48.511,72.74 -86.119,38.832"
   fill="none"
   fill-rule="evenodd"
   opacity="1"
   stroke="#595959"
   stroke-linecap="round"
   stroke-linejoin="round"
   stroke-width="4"
   id="path936" />
<g
   opacity="1"
   id="g942">
<path
   d="m 261.532,323.836 c 0,0 11.165,-39.775 21.807,-65.594 10.642,-25.819 22.504,-56.523 34.018,-56.348 11.514,0.174 23.948,30.055 32.448,56.348 7.502,23.202 15.526,66.117 15.526,66.117"
   fill="none"
   fill-rule="evenodd"
   opacity="1"
   stroke="#595959"
   stroke-linecap="round"
   stroke-linejoin="round"
   stroke-width="4"
   id="path938" />
<path
   d="m 283.339,261.382 c 0,0 19.19,6.28 35.937,6.106 16.748,-0.175 31.053,-6.804 31.053,-6.804"
   fill="none"
   fill-rule="evenodd"
   opacity="1"
   stroke="#595959"
   stroke-linecap="round"
   stroke-linejoin="round"
   stroke-width="4"
   id="path940" />
</g>
<path
   d="m 318.874,183.028 v 0 c 7.104,0 12.864,5.759 12.864,12.863 v 0 c 0,7.105 -5.76,12.864 -12.864,12.864 v 0 c -7.105,0 -12.864,-5.759 -12.864,-12.864 v 0 c 0,-7.104 5.759,-12.863 12.864,-12.863 z"
   fill="#ea0000"
   fill-rule="evenodd"
   opacity="1"
   stroke="#363535"
   stroke-linecap="round"
   stroke-linejoin="round"
   stroke-width="1"
   id="path944" />
<path
   d="m 284.556,251.663 v 0 c 7.105,0 12.864,5.759 12.864,12.864 v 0 c 0,7.104 -5.759,12.864 -12.864,12.864 v 0 c -7.104,0 -12.864,-5.76 -12.864,-12.864 v 0 c 0,-7.105 5.76,-12.864 12.864,-12.864 z"
   fill="#eaea00"
   fill-rule="evenodd"
   opacity="1"
   stroke="#363535"
   stroke-linecap="round"
   stroke-linejoin="round"
   stroke-width="1"
   id="path946" />
<path
   d="m 264.527,320.298 v 0 c 7.104,0 12.864,5.76 12.864,12.864 v 0 c 0,7.105 -5.76,12.864 -12.864,12.864 v 0 c -7.105,0 -12.864,-5.759 -12.864,-12.864 v 0 c 0,-7.104 5.759,-12.864 12.864,-12.864 z"
   fill="#15ea00"
   fill-rule="evenodd"
   opacity="1"
   stroke="#363535"
   stroke-linecap="round"
   stroke-linejoin="round"
   stroke-width="1"
   id="path948" />
<path
   d="m 353.191,251.663 v 0 c 7.105,0 12.864,5.759 12.864,12.864 v 0 c 0,7.104 -5.759,12.864 -12.864,12.864 v 0 c -7.104,0 -12.863,-5.76 -12.863,-12.864 v 0 c 0,-7.105 5.759,-12.864 12.863,-12.864 z"
   fill="#15ea00"
   fill-rule="evenodd"
   opacity="1"
   stroke="#363535"
   stroke-linecap="round"
   stroke-linejoin="round"
   stroke-width="1"
   id="path950" />
<path
   d="m 364.631,320.298 v 0 c 7.104,0 12.863,5.76 12.863,12.864 v 0 c 0,7.105 -5.759,12.864 -12.863,12.864 v 0 c -7.105,0 -12.864,-5.759 -12.864,-12.864 v 0 c 0,-7.104 5.759,-12.864 12.864,-12.864 z"
   fill="#1600ea"
   fill-rule="evenodd"
   opacity="1"
   stroke="#363535"
   stroke-linecap="round"
   stroke-linejoin="round"
   stroke-width="1"
   id="path952" />
<path
   d="m 490.462,183.028 v 0 c 7.105,0 12.864,5.759 12.864,12.863 v 0 c 0,7.105 -5.759,12.864 -12.864,12.864 v 0 c -7.104,0 -12.864,-5.759 -12.864,-12.864 v 0 c 0,-7.104 5.76,-12.863 12.864,-12.863 z"
   fill="#15ea00"
   fill-rule="evenodd"
   opacity="1"
   stroke="#363535"
   stroke-linecap="round"
   stroke-linejoin="round"
   stroke-width="1"
   id="path954" />
<path
   d="m 424.676,251.663 v 0 c 7.104,0 12.864,5.759 12.864,12.864 v 0 c 0,7.104 -5.76,12.864 -12.864,12.864 v 0 c -7.105,0 -12.864,-5.76 -12.864,-12.864 v 0 c 0,-7.105 5.759,-12.864 12.864,-12.864 z"
   fill="#1600ea"
   fill-rule="evenodd"
   opacity="1"
   stroke="#363535"
   stroke-linecap="round"
   stroke-linejoin="round"
   stroke-width="1"
   id="path956" />
<path
   d="m 490.462,251.663 v 0 c 7.105,0 12.864,5.759 12.864,12.864 v 0 c 0,7.104 -5.759,12.864 -12.864,12.864 v 0 c -7.104,0 -12.864,-5.76 -12.864,-12.864 v 0 c 0,-7.105 5.76,-12.864 12.864,-12.864 z"
   fill="#ea0000"
   fill-rule="evenodd"
   opacity="1"
   stroke="#363535"
   stroke-linecap="round"
   stroke-linejoin="round"
   stroke-width="1"
   id="path958" />
<path
   d="m 424.676,183.028 v 0 c 7.104,0 12.864,5.759 12.864,12.863 v 0 c 0,7.105 -5.76,12.864 -12.864,12.864 v 0 c -7.105,0 -12.864,-5.759 -12.864,-12.864 v 0 c 0,-7.104 5.759,-12.863 12.864,-12.863 z"
   fill="#eaea00"
   fill-rule="evenodd"
   opacity="1"
   stroke="#363535"
   stroke-linecap="round"
   stroke-linejoin="round"
   stroke-width="1"
   id="path960" />
<path
   d="m 490.462,320.298 v 0 c 7.105,0 12.864,5.76 12.864,12.864 v 0 c 0,7.105 -5.759,12.864 -12.864,12.864 v 0 c -7.104,0 -12.864,-5.759 -12.864,-12.864 v 0 c 0,-7.104 5.76,-12.864 12.864,-12.864 z"
   fill="#15ea00"
   fill-rule="evenodd"
   opacity="1"
   stroke="#363535"
   stroke-linecap="round"
   stroke-linejoin="round"
   stroke-width="1"
   id="path962" />
<path
   d="m 607.704,180.178 v 0 c 7.104,0 12.863,5.76 12.863,12.864 v 0 c 0,7.105 -5.759,12.864 -12.863,12.864 v 0 c -7.105,0 -12.864,-5.759 -12.864,-12.864 v 0 c 0,-7.104 5.759,-12.864 12.864,-12.864 z"
   fill="#1600ea"
   fill-rule="evenodd"
   opacity="1"
   stroke="#363535"
   stroke-linecap="round"
   stroke-linejoin="round"
   stroke-width="1"
   id="path964" />
<path
   d="m 550.507,251.663 v 0 c 7.105,0 12.864,5.759 12.864,12.864 v 0 c 0,7.104 -5.759,12.864 -12.864,12.864 v 0 c -7.104,0 -12.863,-5.76 -12.863,-12.864 v 0 c 0,-7.105 5.759,-12.864 12.863,-12.864 z"
   fill="#eaea00"
   fill-rule="evenodd"
   opacity="1"
   stroke="#363535"
   stroke-linecap="round"
   stroke-linejoin="round"
   stroke-width="1"
   id="path966" />
<path
   d="m 607.704,320.298 v 0 c 7.104,0 12.863,5.76 12.863,12.864 v 0 c 0,7.105 -5.759,12.864 -12.863,12.864 v 0 c -7.105,0 -12.864,-5.759 -12.864,-12.864 v 0 c 0,-7.104 5.759,-12.864 12.864,-12.864 z"
   fill="#ea0000"
   fill-rule="evenodd"
   opacity="1"
   stroke="#363535"
   stroke-linecap="round"
   stroke-linejoin="round"
   stroke-width="1"
   id="path968" />
<path
   d="m 627.733,274.541 v 0 c 7.104,0 12.864,5.76 12.864,12.864 v 0 c 0,7.105 -5.76,12.864 -12.864,12.864 v 0 c -7.105,0 -12.864,-5.759 -12.864,-12.864 v 0 c 0,-7.104 5.759,-12.864 12.864,-12.864 z"
   fill="#15ea00"
   fill-rule="evenodd"
   opacity="1"
   stroke="#363535"
   stroke-linecap="round"
   stroke-linejoin="round"
   stroke-width="1"
   id="path970" />
<path
   d="m 673.49,308.859 v 0 c 7.104,0 12.864,5.759 12.864,12.864 v 0 c 0,7.104 -5.76,12.864 -12.864,12.864 v 0 c -7.105,0 -12.864,-5.76 -12.864,-12.864 v 0 c 0,-7.105 5.759,-12.864 12.864,-12.864 z"
   fill="#1600ea"
   fill-rule="evenodd"
   opacity="1"
   stroke="#363535"
   stroke-linecap="round"
   stroke-linejoin="round"
   stroke-width="1"
   id="path972" />
<path
   d="m 662.05,251.663 v 0 c 7.105,0 12.864,5.759 12.864,12.864 v 0 c 0,7.104 -5.759,12.864 -12.864,12.864 v 0 c -7.104,0 -12.863,-5.76 -12.863,-12.864 v 0 c 0,-7.105 5.759,-12.864 12.863,-12.864 z"
   fill="#ea0000"
   fill-rule="evenodd"
   opacity="1"
   stroke="#363535"
   stroke-linecap="round"
   stroke-linejoin="round"
   stroke-width="1"
   id="path974" />
<path
   d="m 424.676,320.298 v 0 c 7.104,0 12.864,5.76 12.864,12.864 v 0 c 0,7.105 -5.76,12.864 -12.864,12.864 v 0 c -7.105,0 -12.864,-5.759 -12.864,-12.864 v 0 c 0,-7.104 5.759,-12.864 12.864,-12.864 z"
   fill="#eaea00"
   fill-rule="evenodd"
   opacity="1"
   stroke="#363535"
   stroke-linecap="round"
   stroke-linejoin="round"
   stroke-width="1"
   id="path976" />
</g>
<g
   id="Layer-2"
   vectornator:layerName="Layer 2" />
</svg>
