<?xml version="1.0" encoding="utf-8"?>
<!-- Generator: Adobe Illustrator 24.3.0, SVG Export Plug-In . SVG Version: 6.00 Build 0)  -->
<svg version="1.1" id="LOGO" xmlns="http://www.w3.org/2000/svg" xmlns:xlink="http://www.w3.org/1999/xlink" x="0px" y="0px"
	 viewBox="0 0 2561.5 546.7" style="enable-background:new 0 0 2561.5 546.7;" xml:space="preserve">
<style type="text/css">
	.st0{fill:none;}
	.st1{fill:#FFFFFF;}
</style>
<rect class="st0" width="2561.5" height="546.7"/>
<g>
	<path class="st1" d="M773.2,172.7h-10.3v-37h-0.6l-13.9,30.7h-10.6l-13.9-30.7h-0.6v37H713V117h12.9l17,38.2h0.6l16.9-38.2h12.8
		V172.7z"/>
	<path class="st1" d="M816.1,172.7L804.5,151h-9.1v21.7h-10.3V117h22.1c11.1,0,18,6.6,18,16.4c0,7.6-4.1,13.1-10.8,15.7l12.8,23.7
		H816.1z M795.4,142H806c5.4,0,8.7-3.4,8.7-8.1c0-4.9-3.3-8-8.7-8h-10.6V142z"/>
	<path class="st1" d="M859.7,173.5c-17,0-27.4-12-27.4-28.4c0-16.9,11-28.9,27.4-28.9c12.6,0,22.6,6.7,24.5,19h-11.3
		c-1.8-5.7-6.5-9.3-13.2-9.3c-10,0-16.6,8.4-16.6,19.2c0,11.2,7.2,18.7,16.6,18.7c7.2,0,12.3-3.6,14.1-9h11.3
		C883.2,166.7,872.6,173.5,859.7,173.5z"/>
	<path class="st1" d="M925.9,172.7h-10.5V117h10.5V172.7z"/>
	<path class="st1" d="M936.4,132.9h9.3l0.9,4.7h0.6c2.4-3.1,5.7-5.5,11.7-5.5c9.5,0,15.5,6.1,15.5,16.5v24.1h-10.2v-22.1
		c0-6.5-3.7-9.7-8.5-9.7c-4.9,0-9.2,3.1-9.2,10.2v21.6h-10.2V132.9z"/>
	<path class="st1" d="M987.4,161.9v-20.9h-8.5v-8h2.7c4.9,0,6.8-1.8,6.8-6.1V122h9.2v10.8h10.4v8h-10.4v19.6c0,2.2,0.6,4.9,5.3,4.9
		c1.2,0,2.7-0.2,3.9-0.6v7.7c-1.8,0.4-4.1,0.9-7,0.9C988.7,173.5,987.4,166.2,987.4,161.9z"/>
	<path class="st1" d="M1050.2,160.1c-1.6,8.2-8.4,13.4-18.6,13.4c-11.9,0-20.5-8-20.5-20.3c0-13.1,9.1-21.1,20.1-21.1
		c9.8,0,18.9,6.2,18.9,20.5c0,1-0.1,1.8-0.2,2.9h-28.7c0.4,5.7,4.1,9.9,10.4,9.9c4.5,0,7.6-1.8,8.8-5.3H1050.2z M1021.3,148.6h19
		c-0.2-4.9-3.9-8.4-9.2-8.4C1025.7,140.2,1022,143.9,1021.3,148.6z"/>
	<path class="st1" d="M1088.8,138.4c1.7,2.2,2.5,4.7,2.5,7.5c0,8.4-7.2,13.4-16.7,13.4c-2.5,0-4.7-0.3-6.7-0.9
		c-1.3,0.6-1.9,1.5-1.9,2.6c0,2.3,2.5,3,5.3,3h7.8c9.6,0,14.5,4.6,14.5,11.8c0,8.5-7.2,13.6-18.7,13.6c-12.7,0-18.6-6.3-19.4-13.4
		l6.1-5.3c-2.8-1.5-4.5-4.1-4.5-7.3c0-3.7,2.5-6.2,5.3-7.8c-2.9-2.3-4.7-5.6-4.7-9.7c0-7.8,6.3-13.8,16.5-13.8c3.5,0,6.7,0.7,9.2,2
		c2.5-1.3,5.3-3.5,6.8-5.7l5,5.6C1094,135.3,1091.5,137.1,1088.8,138.4z M1077.8,172h-7.2l-5.3,4.5c0.9,2.8,3.8,5.3,9.6,5.3
		c4.9,0,8.9-1.8,8.9-5.4C1083.8,173,1080.7,172,1077.8,172z M1081.6,145.7c0-3.7-2.6-6.3-7-6.3c-4.5,0-7.2,2.6-7.2,6.3
		c0,3.5,2.8,6.1,7.2,6.1C1079,151.8,1081.6,149.2,1081.6,145.7z"/>
	<path class="st1" d="M1100.6,132.9h9.2l1,5.7h0.6c2.5-4,5.2-6.5,11.9-6.5h2.9v10.2c-1.4-0.2-2.9-0.3-4.3-0.3
		c-8.8,0-11.1,6.5-11.1,12.2v18.6h-10.2V132.9z"/>
	<path class="st1" d="M1168.4,165.1v7.6h-4.3c-3.7,0-6.7-1.1-8-4.8c-2.7,3.4-6.8,5.6-13.1,5.6c-8.1,0-14.1-3.8-14.1-11.7
		c0-7.6,5.8-11.4,13.1-12.1l12.4-1.3v-1.7c0-4.4-2.8-6.5-6.7-6.5c-4.3,0-6.5,2.4-7.2,6h-10.2c0.8-8.3,7.2-14.1,17.4-14.1
		c9.3,0,16.9,4.7,16.9,15.4V162c0,2.1,1,3,2.9,3H1168.4z M1154.4,155.4l-8.9,1c-3.7,0.4-6.5,1.9-6.5,5c0,3.2,2.5,4.3,5.7,4.3
		c4.3,0,9.7-2.1,9.7-8.4V155.4z"/>
	<path class="st1" d="M1178,161.9v-20.9h-8.5v-8h2.7c4.9,0,6.8-1.8,6.8-6.1V122h9.2v10.8h10.4v8h-10.4v19.6c0,2.2,0.6,4.9,5.3,4.9
		c1.2,0,2.7-0.2,3.9-0.6v7.7c-1.8,0.4-4.1,0.9-7,0.9C1179.2,173.5,1178,166.2,1178,161.9z"/>
	<path class="st1" d="M1203.5,121.7c0-3.5,2.9-6.2,6.3-6.2c3.3,0,6.1,2.7,6.1,6.2c0,3.3-2.8,6.1-6.1,6.1
		C1206.5,127.8,1203.5,124.9,1203.5,121.7z M1204.7,132.9h10.2v39.8h-10.2V132.9z"/>
	<path class="st1" d="M1220,132.9h10.5l10.6,29.2h0.6l10.4-29.2h10.4l-15.2,39.8h-12.2L1220,132.9z"/>
	<path class="st1" d="M1303.3,160.1c-1.6,8.2-8.4,13.4-18.6,13.4c-11.9,0-20.5-8-20.5-20.3c0-13.1,9.1-21.1,20.1-21.1
		c9.8,0,18.9,6.2,18.9,20.5c0,1-0.1,1.8-0.2,2.9h-28.7c0.4,5.7,4.1,9.9,10.4,9.9c4.5,0,7.6-1.8,8.8-5.3H1303.3z M1274.5,148.6h19
		c-0.2-4.9-3.9-8.4-9.2-8.4C1278.9,140.2,1275.2,143.9,1274.5,148.6z"/>
	<path class="st1" d="M751.1,246.2v9.2H713v-55.7h37.3v9.2h-27.1v13.9h23.3v8.9h-23.3v14.7H751.1z"/>
	<path class="st1" d="M799.2,235.5c0,13-8.3,20.6-18.7,20.6c-5.4,0-9.4-2.1-11.5-4.5v19.7h-10.2v-55.7h8.3l0.9,4.7h0.7
		c1.9-2.5,5.7-5.5,11.9-5.5C791.2,214.7,799.2,222.8,799.2,235.5z M789,235.5c0-7.2-4.1-11.9-10.1-11.9s-10,4.8-10,11.9
		c0,7,3.9,11.8,10,11.8S789,242.5,789,235.5z"/>
	<path class="st1" d="M805.4,204.3c0-3.5,2.9-6.2,6.3-6.2c3.3,0,6.1,2.7,6.1,6.2c0,3.3-2.8,6.1-6.1,6.1
		C808.4,210.4,805.4,207.5,805.4,204.3z M806.6,215.5h10.2v39.8h-10.2V215.5z"/>
	<path class="st1" d="M864.6,198.8v56.5h-8.3l-0.9-4.7h-0.7c-1.9,2.5-5.7,5.5-11.9,5.5c-10.7,0-18.7-8.1-18.7-20.8
		c0-13,8.3-20.6,18.7-20.6c5.4,0,9.4,2.1,11.5,4.5v-20.5H864.6z M854.4,235.3c0-7-3.9-11.8-10-11.8c-6.1,0-10.1,4.8-10.1,11.8
		c0,7.2,4.1,11.9,10.1,11.9C850.5,247.3,854.4,242.5,854.4,235.3z"/>
	<path class="st1" d="M910.9,242.7c-1.6,8.2-8.4,13.4-18.6,13.4c-11.9,0-20.5-8-20.5-20.3c0-13.1,9.1-21.1,20.1-21.1
		c9.8,0,18.9,6.2,18.9,20.5c0,1-0.1,1.8-0.2,2.9H882c0.4,5.7,4.1,9.9,10.4,9.9c4.5,0,7.6-1.8,8.8-5.3H910.9z M882.1,231.3h19
		c-0.2-4.9-3.9-8.4-9.2-8.4C886.4,222.8,882.8,226.5,882.1,231.3z"/>
	<path class="st1" d="M918.5,215.5h9.3l0.9,4.7h0.6c2.2-2.9,5.5-5.5,10.9-5.5c6.3,0,9.1,3.4,10.4,6.3h0.6c2.2-3.1,5.7-6.3,12.4-6.3
		c8.2,0,13.5,4.9,13.5,14.6v26H967v-24.1c0-5.1-3-7.6-6.8-7.6c-4.3,0-7.2,3.2-7.2,8.2v23.6h-10.2v-23.8c0-5.3-2.9-8-6.8-8
		c-3.7,0-7.2,2.6-7.2,8.1v23.7h-10.2V215.5z"/>
	<path class="st1" d="M984.9,204.3c0-3.5,2.9-6.2,6.3-6.2c3.3,0,6.1,2.7,6.1,6.2c0,3.3-2.8,6.1-6.1,6.1
		C987.9,210.4,984.9,207.5,984.9,204.3z M986.1,215.5h10.2v39.8h-10.2V215.5z"/>
	<path class="st1" d="M1003.6,235.3c0-12.3,9.1-20.6,21-20.6c11.9,0,21,8.4,21,20.6c0,12.3-9,20.8-21,20.8
		C1012.7,256.1,1003.6,247.6,1003.6,235.3z M1035.5,235.3c0-6.6-4.4-11.8-10.9-11.8c-6.5,0-10.8,5.2-10.8,11.8
		c0,6.7,4.3,11.9,10.8,11.9C1031.2,247.3,1035.5,242,1035.5,235.3z"/>
	<path class="st1" d="M1053,198.8h10.2v56.5H1053V198.8z"/>
	<path class="st1" d="M1070.5,235.3c0-12.3,9.1-20.6,21-20.6c11.9,0,21,8.4,21,20.6c0,12.3-9,20.8-21,20.8
		C1079.6,256.1,1070.5,247.6,1070.5,235.3z M1102.4,235.3c0-6.6-4.4-11.8-10.9-11.8c-6.5,0-10.8,5.2-10.8,11.8
		c0,6.7,4.3,11.9,10.8,11.9C1098.1,247.3,1102.4,242,1102.4,235.3z"/>
	<path class="st1" d="M1150.7,221c1.7,2.2,2.5,4.7,2.5,7.5c0,8.4-7.2,13.4-16.7,13.4c-2.5,0-4.7-0.3-6.7-0.9
		c-1.3,0.6-1.9,1.5-1.9,2.6c0,2.3,2.5,3,5.3,3h7.8c9.6,0,14.5,4.6,14.5,11.8c0,8.5-7.2,13.6-18.7,13.6c-12.7,0-18.6-6.3-19.4-13.4
		l6.1-5.3c-2.8-1.5-4.5-4.1-4.5-7.3c0-3.7,2.5-6.2,5.3-7.8c-2.9-2.3-4.7-5.6-4.7-9.7c0-7.8,6.3-13.8,16.5-13.8c3.5,0,6.7,0.7,9.2,2
		c2.5-1.3,5.3-3.5,6.8-5.7l5,5.6C1155.9,218,1153.4,219.7,1150.7,221z M1139.7,254.6h-7.2l-5.3,4.5c0.9,2.8,3.8,5.3,9.6,5.3
		c4.9,0,8.9-1.8,8.9-5.4C1145.8,255.6,1142.7,254.6,1139.7,254.6z M1143.6,228.3c0-3.7-2.6-6.3-7-6.3c-4.5,0-7.2,2.6-7.2,6.3
		c0,3.5,2.8,6.1,7.2,6.1C1140.9,234.5,1143.6,231.8,1143.6,228.3z"/>
	<path class="st1" d="M1164.9,271.2v-7.6c1.5,0.3,2.9,0.5,4.1,0.5c3.7,0,7.2-1.4,8.8-5.3l1.4-3.4h-3.2l-15.2-39.8h10.5l10.8,29.4
		h0.6l10.1-29.4h10.5l-16.1,44.8c-1.2,3.5-4.3,11.8-15.9,11.8C1168.7,272,1166.7,271.6,1164.9,271.2z"/>
	<path class="st1" d="M758.8,316.4c0,15.1-9.8,22.4-22.8,22.4c-13.1,0-23-7.2-23-22.4v-34.2h10.5V316c0,8.4,5.3,13,12.5,13
		s12.3-4.5,12.3-13v-33.8h10.5V316.4z"/>
	<path class="st1" d="M768.9,298.1h9.3l0.9,4.7h0.6c2.4-3.1,5.7-5.5,11.7-5.5c9.5,0,15.5,6.1,15.5,16.5v24.1h-10.2v-22.1
		c0-6.5-3.7-9.7-8.5-9.7c-4.9,0-9.2,3.1-9.2,10.2v21.6h-10.2V298.1z"/>
	<path class="st1" d="M814.7,286.9c0-3.5,2.9-6.2,6.3-6.2c3.3,0,6.1,2.7,6.1,6.2c0,3.3-2.8,6.1-6.1,6.1
		C817.6,293,814.7,290.2,814.7,286.9z M815.9,298.1h10.2v39.8h-10.2V298.1z"/>
	<path class="st1" d="M839.9,327.1v-20.9h-8.5v-8h2.7c4.9,0,6.8-1.8,6.8-6.1v-4.8h9.2v10.8h10.4v8h-10.4v19.6c0,2.2,0.6,4.9,5.3,4.9
		c1.2,0,2.7-0.2,3.9-0.6v7.7c-1.8,0.4-4.1,0.9-7,0.9C841.2,338.7,839.9,331.5,839.9,327.1z"/>
</g>
<g>
	<path class="st1" d="M1802.7,263.1c4.2-0.2,11.1-0.5,14.8-0.5c20.7,0,27.8,10.8,27.8,22.6c0,13.1-8.1,19.5-24.2,19.5h-18.4V263.1
		L1802.7,263.1z M1788.7,348.6c0,10.6-2.7,13.8-16.5,13.8h-3.9v3.2h61.6c27.1,0,36.4-18.7,36.4-32c0-13.1-9.3-23.4-25.1-28.1v-0.3
		c11.3-2,19.2-10.9,19.2-20.5c0-8.1-3.4-13.8-10.3-18.7c-6.1-4.4-19-6.6-33.8-6.6c-3.2,0-16,0.2-25.3,0.5c-4.9,0.2-16.5,0.8-21.2,1
		v3.2h5.9c11.8,0,13,5.1,13,14.6V348.6L1788.7,348.6z M1802.7,307.9h18.2c19.7,0,29.6,13.3,29.6,26.3c0,13.1-6.4,26.9-28.6,26.9
		c-14.1,0-19.2-4.5-19.2-17.3V307.9L1802.7,307.9z"/>
	<path class="st1" d="M2036.9,264.1v-3.2H1996v3.2c9.4,0.5,12.6,3,12.6,12.1V348c0,10.9-2.1,13.8-11.7,14.4
		c-12.8-0.7-18.3-5.7-27.5-14.9l-13.3-13.3c-7.9-7.9-13-12.6-19.2-17.5c13.8-4,22.4-14.7,22.4-27.3c0-17.2-14-30-45.1-30
		c-11,0-14.3,0.2-21.2,0.5c-6.9,0.3-17.2,1-21.2,1v3.2h3.7c9.8,0,12.6,3,12.6,13.5v70.9c0,11.3-3.5,14-13.5,14h-2.9v3.2h47.7v-3.2
		h-3.9c-9.4,0-13.5-2.5-13.5-12.6v-28.5c2.7,0.2,4.9,0.3,8.6,0.3c4.6,0,7.2-0.2,11.5-0.3c4,2.7,9.9,7.6,17.4,15l11.1,11.1
		c14.6,14.6,20.8,19.2,48.2,18.2h38.2v-3.2c-11.6,0-14.3-3.4-14.3-13.3v-71.4C2022.6,266.5,2026.3,264.1,2036.9,264.1L2036.9,264.1z
		 M1912.5,318.5c-3.9,0-6.4,0.2-10.4-0.3v-55.2c3-0.3,5.2-0.3,8.4-0.3c25.9,0,33,12.1,33,27.8
		C1943.4,310.6,1931.2,318.5,1912.5,318.5L1912.5,318.5z"/>
	<path class="st1" d="M2048.3,340.1c3.5,15,15.3,23.7,28.5,23.7c11.3,0,23.2-6.6,23.2-19.9c0-24.3-54.1-31.7-54.1-61.1
		c0-14,12.8-24.4,30-24.4c14.1,0,17,4.2,22.9,4.2c1.3,0,2-0.3,3-1.7h2.7l2.9,21.4h-2.9c-4.7-12.1-15.5-19.9-27.1-19.9
		c-11.1,0-18.9,6.4-18.9,15.8c0,23.9,54.1,30.3,54.1,61.3c0,16.5-14.7,28.8-34.4,28.8c-9.3,0-21-4.5-23.4-4.5
		c-1.5,0-2.7,0.8-3.4,1.9h-2.9l-3.5-25.6H2048.3L2048.3,340.1z"/>
	<path class="st1" d="M2177.5,350.2c0,9.1,3,12.3,13.3,12.3h6.2v3.2H2144v-3.2h6.2c10.3,0,13.3-3.2,13.3-12.3V267h-29.3
		c-6.7,0-9.8,3.9-12.3,18.7h-3l2.7-27.3h3.2c0.2,1,0.8,1.7,1.9,2c1,0.3,2.2,0.5,3.4,0.5h81c2.4,0,4.9-0.5,5.2-2.5h3.2l2.7,27.3h-3
		c-2.5-14.8-5.6-18.7-12.3-18.7h-29.3V350.2L2177.5,350.2z"/>
	<path class="st1" d="M2329.6,316c0,23.9-13.1,48.2-40.6,48.2c-27.1,0-48.5-22.2-48.5-53.7c0-20.2,11.8-47.8,41.4-47.8
		C2309.7,262.6,2329.6,284.7,2329.6,316L2329.6,316z M2345.4,310.4c0-30.3-27.3-52-59.1-52c-35.9,0-61.6,23.7-61.6,57.3
		c0,31.5,27.8,52.7,60.8,52.7C2318.1,368.4,2345.4,344.4,2345.4,310.4L2345.4,310.4z"/>
	<path class="st1" d="M2423.7,365.7h-75.3v-3.2h5.6c7.7,0,10.6-2.5,10.6-11.1v-74.6c0-8.9-2.7-12.6-13.3-12.6h-2.4v-3.2h49.7v3.2
		h-6.2c-10.9,0-13.8,1.2-13.8,11.6v77.6c0,4.5,1.9,6.2,6.7,6.2h24.8c9.9,0,13-3.9,23.6-18.5h3L2423.7,365.7L2423.7,365.7z"/>
	<path class="st1" d="M1637,212.8c-0.1-9.8-3.5-29.8-26.9-41.2c23.8,7.6,35.3,27.7,36.4,42.7c25,5,47.2,16.7,83.2,4.3l0.1-0.1
		c0,0-47.4,0.4-67.2-13.9c10.2,0.4,22-1.9,25.9-7.7c4.1-6.2,4.5-12.6,14.7-12.9c5.7-0.2,25,1.3,27-27.1c-6.2,10.4-12.9,14.7-23,12.2
		c-6.5-1.6-18.2-6.6-26.7,3.5c-7,8.3-14.4,12.6-26.3,11.3c4.8-6.4,75.8-98.6,75.8-98.6s-91,73-96,77.3c-1-13.3,3-18.2,8.4-24.1
		c4.4-4.8,12-11.3,5.9-25c-4.9-11.1-4.2-17.8,9.1-28.4c-10.6,0.8-26.8,7.9-24.9,27.4c1.2,11.8-7.2,12.8-10.2,14.5
		c-7.9,4.4-9,17.1-9.2,27c-0.9-3.2-12.4-52.8-16.5-68.8c0,0,0,133.3,0,133.3h0.3C1612.3,212.4,1625.2,211.5,1637,212.8L1637,212.8z"
		/>
	<path class="st1" d="M1863.3,140.8v2.4c-8.4,0.1-11.4,3.5-11.4,11.5v33.7c0,15.5-9.9,32.1-37,32.1c-23.8,0-36.1-13.6-36.1-31.5
		v-36.5c0-8-2.2-9.2-10.7-9.4v-2.4h32.1v2.4h-1.1c-6.9,0-9.9,1.9-9.9,9.1V187c0,16.9,9.9,27,28.5,27c14.1,0,28.5-5.9,28.5-27.1
		v-29.1c0-12-1.9-14.1-12.2-14.6v-2.4H1863.3L1863.3,140.8z"/>
	<path class="st1" d="M1879.7,207.6c0,6.9,1.6,8.5,8.4,8.5v2.4H1863v-2.4c5.5,0,8.4-3,8.4-7.9V182c0-4.6-0.5-5.5-3.7-6.1l-4.2-0.9
		v-2l14.4-5.2h2v9.7c8.4-5.2,15.4-9.9,21.5-9.9c8.5,0,13.4,6.2,13.4,18.7c0,16.6-0.9,19.9-1,24.7c-0.1,3.4,1.9,5,7,5h2.7v2.4h-26.8
		v-2.4c3.6-0.1,5.7-1,7.1-2.4c2.4-2.4,2.6-11.5,2.6-28.1c0-10-4.9-13.1-9.9-13.1c-4,0-10.1,3.5-16.6,8V207.6L1879.7,207.6z"/>
	<path class="st1" d="M1947.2,209c0,4.4,2.4,7.1,9,7.1v2.4h-27.7v-2.4c7.6,0,10.4-2.5,10.4-9.1v-25.1c0-4.9-0.6-5.5-3.9-6.1
		l-5.9-1.1v-2l16.2-5.6h1.9V209L1947.2,209z M1942.1,138.9c3,0,5.5,2.1,5.5,4.7c0,2.6-2.5,4.7-5.5,4.7c-3,0-5.4-2.1-5.4-4.7
		C1936.7,141.1,1939.1,138.9,1942.1,138.9L1942.1,138.9z"/>
	<path class="st1" d="M1984.7,219.6l-18.1-41.5c-1.9-4.4-3.5-5.9-5.5-6.2l-3.9-0.6V169h25.5v2.2c-7.6,0.2-10,1.2-7,7.1l13.2,31.1
		l12.7-28.8c2.2-5.1,1.1-8.7-8-9.4V169h21.7v2.2c-4.7,0.9-7.5,3.6-9.9,9.1l-17.2,39.2H1984.7L1984.7,219.6z"/>
	<path class="st1" d="M2025.9,183.5c2.9-11.6,9.1-13.5,13.2-13.5c6,0,11,5.4,12.4,13.5H2025.9L2025.9,183.5z M2062,186.8v-2.9
		c-4.1-4.1-3.7-16.2-20.6-16.2c-15.2,0-24.1,13.5-24.1,26.7c0,14.5,9.5,25.6,21.7,25.6c9.1,0,17-6.2,22.2-12.9l-1.4-1.5
		c-4.7,5.6-9.6,8.1-15.9,8.1c-9.9,0-19-8.7-19-21.7c0-1.6,0.3-3.4,0.5-5.2H2062L2062,186.8z"/>
	<path class="st1" d="M2086.1,209.4c0,5.1,1.9,6.7,8.1,6.7h4.7v2.4h-29.6v-2.4c6.4-0.1,8.4-2.7,8.4-9.4v-28.8l-8.4-3v-2.1l14.2-5
		h2.5V181h0.2c6.2-10.2,7.7-12.6,11.9-12.6c1.5,0,1.9,0.1,4.2,1.1c1.2,0.5,3.5,1,6.5,1.9l-3,7.5c-1.9-0.2-4.2-0.9-6.6-2
		c-1.4-0.6-2.9-1.2-4.4-1.2c-2.3,0-3.6,1.5-4.9,3.2c-1.6,2.2-3,4.4-4,6.2V209.4L2086.1,209.4z"/>
	<path class="st1" d="M2117.5,205.9c1.5,7.5,6.2,11.7,11.9,11.7c5,0,8.9-3.7,8.9-8.2c0-2.6-0.6-4.2-4-7.6
		c-8.9-8.9-18.7-9.7-18.7-20.1c0-8.2,6.5-14,16-14c3.4,0,6.9,0.8,10,2l0.2,11.4h-2.1c-0.9-6.4-5-10.4-10-10.4c-4.1,0-7.6,2.9-7.6,7
		c0,11,23.2,12.9,23.2,28.1c0,8.1-6.7,14.2-15.5,14.2c-2.4,0-4.1-0.4-5.5-0.9c-1.4-0.4-2.4-0.7-3.4-0.7c-0.7,0-1.5,0.5-2.1,1.5h-1.9
		l-1.4-14H2117.5L2117.5,205.9z"/>
	<path class="st1" d="M2171.6,209c0,4.4,2.4,7.1,9,7.1v2.4h-27.7v-2.4c7.6,0,10.4-2.5,10.4-9.1v-25.1c0-4.9-0.6-5.5-3.9-6.1
		l-5.9-1.1v-2l16.2-5.6h1.9V209L2171.6,209z M2166.5,138.9c3,0,5.5,2.1,5.5,4.7c0,2.6-2.5,4.7-5.5,4.7c-3,0-5.4-2.1-5.4-4.7
		C2161.1,141.1,2163.5,138.9,2166.5,138.9L2166.5,138.9z"/>
	<path class="st1" d="M2216.2,169l-2,5.5h-15.9v29.1c0,7.9,5.6,10.5,8.2,10.5c2.7,0,5.2-2.1,7.6-6.2l2,1.9
		c-3,6.5-7.9,10.2-13.6,10.2c-7.4,0-12.6-6.1-12.6-14.5v-31h-5.7v-2c4.9-2.4,9.1-8.1,12-15.9h2.1V169H2216.2L2216.2,169z"/>
	<path class="st1" d="M2265.6,182.9c3.7-9.5,1.4-11.4-6-11.6V169h20.7v2.2c-5.1,0.6-8,4.1-10.4,10l-21.2,52.9
		c-3.8,9.2-6.6,13.4-11,13.4c-3,0-5.1-1.9-5.1-4.4c0-5.1,7.2-3.9,10.4-7c1.4-1.4,3.2-4.6,4.2-7.1l3.7-9.4l-19.4-41.1
		c-2.4-5.1-4.6-7.2-9.9-7.4V169h25.1v2.2c-7.6,0.1-8.5,2.4-6,7.6l14.1,30.5L2265.6,182.9L2265.6,182.9z"/>
	<path class="st1" d="M2317.7,189.9c0-10.7,7.6-19.2,15.9-19.2c10.5,0,19.2,12.1,19.2,26.3c0,12.5-8.4,20-15.7,20
		C2326.3,217,2317.7,205,2317.7,189.9L2317.7,189.9z M2308.4,194.1c0,14.6,11.9,25.8,27.3,25.8c14.9,0,26.5-11.4,26.5-26.1
		c0-14.9-11.6-26.2-26.8-26.2C2322.3,167.7,2308.4,176.9,2308.4,194.1L2308.4,194.1z"/>
	<path class="st1" d="M2398.4,174.5h-13.5v34.2c0,5.7,2.2,7.4,9.2,7.4h4.7v2.4H2368v-2.4c7.2,0,8.5-1.6,8.5-8.6v-33h-9.2v-2.1
		c3.5-0.7,6.5-1.9,9.2-3.4c0-10.4,2.2-18.2,9.6-25.6c6.1-6.1,12-8.9,17.7-8.9c7,0,12.9,4,12.9,5.9c0,1-2.4,6-3.4,6
		c-1.8,0-6.4-6.1-14.6-6.1c-9,0-13.9,7.1-13.9,19.2v9.5h12.6L2398.4,174.5L2398.4,174.5z"/>
	<path class="st1" d="M1582.7,85.2c0,0,0,131.2,0,133.3c-53.6-21.1-76,19.8-133.1,0c0,0.6,0-133.3,0-133.3h27.2v14.4h15.6l0-14.4
		h15.3l0,14.4l15.5,0l0-14.4h15.5v14.4l16.8,0V85.2H1582.7L1582.7,85.2z M1484.1,124c6.1,0.3,13.6-3.5,14-3.8c0,0-2.6,6.5,3.2,6.1
		c6.3-0.4,13.5-3.6,14.6-4.1v-8.4c-0.6,0.4-6.7,4.7-13.6,6.3c-2.5,0.6-1.7-1.7-1.4-3c0.3-1.3,0.4-2.3-4.1-0.5
		c-18.6,7.7-19.6,2.4-19.6,1.8C1476.4,119.4,1476.7,123.6,1484.1,124L1484.1,124z M1538.4,124.3c0,0-24.2,3.5-31.2,4.1
		c-4.8,2.8-10.3,10.8-10.3,10.8s-5.7,0.8-17,2.9c-7.9,5.1-12.6,17.1-2.8,26.9c-3.1-0.6-3.1-0.6-7.6-1.4c-9.7,6.2-5.2,17.6,14.9,13.7
		c-5.7-0.2-8.5-3-8.4-6.6c-0.1-3.9,7.5-8.8,16.9-6.3c-8.9-16.8,1-23.4,1-23.4s-5.2,13.9,6.2,25.2c1-1.7,4.4-6.4,14-6.6
		c9.6-0.2,15.6,4.5,15.7,9.9c0.1,4.8-5.9,9.8-13.8,9.8l-0.1-11.4c0,0-2.6,0.9-3.3,1.9c0,0.5-0.1,9.6-0.1,9.6
		c-3.1,0-9.4-1.3-12.7-6.6c-2.6-0.3-16.9-2.4-16.9-2.4l0.8,3.8c0,0,5,0.8,6,5.9c1.2,6.1,4.6,11.7,7.7,13.9c6-0.7,15.9-8.2,34.1-8
		c-16.7,2.3-33.7,20.2-58.2,13.4c38.9,13.3,42.9-16.2,91.6-7c-7.6-4.6-18.9-6.1-18.9-6.1s6.1-6.6,6.3-16.6c0.8,0,1.8-0.1,3.7-0.3
		c0.6-3.2,1.1-6.5,1.1-6.5s-10.6,0-19.5,0C1515.8,145,1538.4,124.3,1538.4,124.3L1538.4,124.3z M1547.7,157.3
		c-1-5.5-0.5-16.5,4.9-27.3c-20,15.1-20.2,27.3-20.2,27.3S1536.3,154.3,1547.7,157.3L1547.7,157.3z"/>
	<path class="st1" d="M1729.7,232.2c0-2.1,0,133.5,0,133.5c-73.8,18-75.9-21.2-133.1,0c0,1.7,0-133.5,0-133.5
		C1649.1,210.2,1669.6,251.9,1729.7,232.2L1729.7,232.2z M1700,247.3c-11.9,4.2-10.1,17-6.9,21.9c4.2,6.4,7.7,6.6,10.4,14.1
		c2.1,5.9-1.6,9-5.3,10.3c6.3,3.9,12.7-0.1,15.1-4c4.3-5.7-0.6-13.1,4-16.9c1.2-1,3.3-1.7,6.1-1.9c-2.8-3.9-9.3-3.5-11.9,0.2
		c-1.8-4.3-7-8-5.1-14.6c1.2-4.3,8-5.9,10.6-2.4c1.4,1.9,1.6,5.7-2.5,7.7c2.6-0.2,7.5-4.6,4.1-10.7c-2.4-4.3-6.3-4.6-9.5-4.6
		c-5.9,0-15.6,6.7-9.4,21.2C1696.1,264.5,1690.3,253.4,1700,247.3L1700,247.3z M1624.9,273.2c0,0-1.9,2.3,0.2,2.9
		c0,0.7,0.3,2,0.6,2.7c0.4,0.9,1,0.6,1.6-0.1c0.7-0.8,1.8-2.2,2.6-3.1c0.7-0.8,3.2-0.5,2.2,1.1c-0.7,1-1.2,1.3-2.1,1.5
		c-0.7,0.2-0.9-0.4-1.6,0.6c-0.8,1.1-1.6,1.8-0.2,1.8c0.7,0,2.1,0.7,3,0.5c0.9-0.1,1-0.7,1.1-1.5c0.1-0.8-0.1-1.3,0.8-1.8
		c1.2-0.6,2.9-2.2,3.4-2.7c0.6-0.6,1.4-0.5,2.1-0.5s4.5,0.5,6.7-2.9c1.6-2.3,1.7-5.6,1.2-8.4c1.1,1.1,2.5,4.4,1.7,7.5
		c-1.3,5.6-4.1,5.9-6.9,6.5c-1.2,1.6-4.1,5.9-5.7,13.5c-0.7,0.4-6.3,5.9-1.6,14.7c-1.2,0.4-4.8,1.9-6.9,2.4
		c-1.4,0.3-2.6,0.4-3.2,1.1c-0.6,0.8-2.1,3.3-1.4,4.5c0.5,0.9,4.1,8.7,4.3,11.2c0.3,2.4,1.2,3,2,3.8c1,0.9,1.6,0.8,2.9,1.8
		c1.4,1,2.5,2.9,3.8,3.9c1.4,1.1,2.9,1.5,3.9,1.4c-0.3-3.9-1.1-7.8-2.3-9.1c-1.3-1.3-2.9,0.6-3.3,0.7c-0.4,0.1-0.9-0.3-1.2-1.4
		c-0.2-1.1,0.8-2-0.2-3.5c-1.8-2.7-3.5-5.7-3.7-6.1c-1.3-2.5,0.9-3.1,1.4-3c1.3,0.3,8.8,1.3,9.9,1.4c1.2,0.1,1.8,0.3,2.3-0.3
		c1.6-1.8,2.5-3.1,3.4-4.9c1.7,1.3,0.5,3.7,0,6.5c0.5,0.4,11.4,5.9,26.4,1.9c6.3-1.7,5.6-0.4,6.1,0.8c3.6,7.1,6.2,9.8,10.5,13.2
		c1.3,1,2.2,2.7,2.8,3.7c0.6,1,0.7,2.7,0.3,3.8c-0.6,1.4-3.9,7.4-4.5,8.2c-1.1,1.6-2.5,3-3.7,3.6c-3.8,2-4.7,3.8-5.2,5.3
		c0.9,0,9.8,0,9.8,0s0.2-0.5,0.1-1.7c-0.2-1.7,1.4-2,1.9-2.1c0.5-0.1,1.4,0.3,2.1-1.5c1.5-3.5,7.1-13.1,7.6-13.9
		c0.5-0.9,2.3-3.2,0.5-4.2c-3.3-1.9-5.2-5.1-5.9-8.7c-0.3-1.4-0.1-3.7,3.1-7.7c6.8-8.5,1.7-26-13.5-25.7c-8.6,0.2-13.4-0.6-19-1.7
		c-2.1-0.4-2.4-1.5-2-2.8c0.5-1.3,0.9-3.8,0.9-4.9c-1.5-1.4-3.7-2.2-4.8-2.6c-1.2-0.4-1.8-1.4-0.6-1.4c1.2-0.1,5.7,0.4,5.7,0.4
		s0.2-2.4-0.5-6c-1.9-0.8-4.4-1.5-7-1.9c-0.7-0.1-1.3-0.8,0.5-1.1c2.3-0.3,4.3,0,5.9-0.1c0.1-0.2-0.8-4.7-2.4-6.5
		c-1.1-0.3-1.7-0.5-5.6-0.9c-1.4-0.2-1.4-0.5-0.5-0.8c1-0.3,2.8-0.7,5-0.5c-0.8-1.2-6.4-11.4-18.1-8.3c1.3,1.6,1.9,2.3,2.3,3.4
		c0.3,1-0.7,1.3-1.6,0.3c-3.7-3.9-5.6-3.8-8-4.2c1.5,1.5,2.2,3,2.8,4.5c-2.7,1.9-6.4,6.4-7,7.2c-1,1.7,0.4,2.5,0.4,2.5L1624.9,273.2
		L1624.9,273.2z M1630.4,298.6c-5.4-2.2-6.6-3.7-7.6-4.1c-0.9-0.4-4.6,1.2-5.2,2.8c-1.7,4.3-5.4,11.4-6,12.4
		c-0.3,0.5-0.6,1.2-0.5,1.9c0.1,0.7,0.3,3.5,0.2,4.1c-0.1,0.6,0,1.5,0.3,2.1c0.3,0.6,0.6,3.4,2,6.2c3.2-3.2,3.6-7.8,3.4-6.9
		c0,0,1-1.7-1.5-2.5c-0.7-0.2-0.6-2.1,0.2-2.3c0.9-0.3,1.4-0.5,1.9-2.2c0.5-1.7,2.1-7.7,2.7-8.9c0.1-0.2,0.2-0.5,0.6-0.6
		c0.5-0.2,1.1-0.4,1.5-0.5c0.2,0,0.7,0.2,0.8,0.4c0.9,0.9,5.3,4.5,5.3,4.5s2-0.2,3.2-0.7C1630.8,303,1630.5,300.1,1630.4,298.6
		L1630.4,298.6z M1679.8,333.9c-2.1,1.7-8.7,5.1-10.3,5.8c-1.6,0.8-2.2,1.2-3.4,3.6c-1.5,2.9-2.9,8.2-2.5,8.6c4.1-0.6,7-4.1,7-4.1
		s0.1-0.8-0.8-2.3c-0.7-1.2,0.7-2.4,1.6-1.7c0.7,0.6,1.6,0.7,2.2,0.2c0.6-0.5,13.2-8.5,13.8-9.5c-2.6-2.5-4.5-5.1-4.5-5.1
		S1682,332.1,1679.8,333.9L1679.8,333.9z M1633.9,266.5c0,0-0.6-0.3,0.6-1.3c0.1-0.1,0.4,0.2,1.1,0.2c0.9,0,1.4-0.3,2.2-1.3
		c1.2-1.4-1.3-2-2.1-1.3c-0.9,0.8-1.5,1.5-2.3,2.2C1633.4,265,1632.2,266.2,1633.9,266.5L1633.9,266.5z"/>
	<path class="st1" d="M1582.7,232.2c0,0,0,135.2,0,133.5c-57.2-21.2-59.3,18-133.1,0c0,0,0-135.6,0-133.5
		C1509.7,251.9,1530.2,210.2,1582.7,232.2L1582.7,232.2z M1492,319.9c-0.5,5.7-3.7,6.5-3.7,6.5c-5.7-2.6-8.7,4.5-4,6.6
		c6,2.7,9.7-5.1,10.1-6.6c1-4.1,1.1-7,0.7-13.6c-0.4-5.7,1-6.5,1.9-6.7c0.9-0.2,2.9-0.2,4.8,5.7c1.9,5.9,6.1,6.7,6.1,6.7
		s-6.1-9.9,2.4-19c3.9-4.2,11.9-6.6,10.4-12.6c0,0-1.2,2.1-3.6,2.7c-2.4,0.6-7.1,1.3-7.1,1.3s11.2-5.3,13.2-11.3
		c0,0,3.5,5.8-1.2,14.3c0,0,4.4-1.6,9.2,0.6c12.2,5.4,10.9,22.7-4.5,26.8c-21.9,5.9-13.9,22.8-1.4,23.8c-1.3-0.9-1.7-6,0.6-9
		c1.1-1,3.1-3,4.3,1.2c2.2,7.3,8.6,7.9,11.6,7c-0.8-0.7-2.2-2.9-2.1-4.2c0.4-2.6,3.6,0.1,4.7,0.4c8.6,2.4,13.2,0.3,13.7-1
		c-1.9-0.4-1.6-0.2-2.8-0.5c-1.1-0.3-3.4-1.9,0.8-2.8c7.6-1.7,11.8-9.6,6.8-15.6c-4.8-5.8-10.8-4.9-12.8-4.1
		c8.3,1.8,8.7,8.4,4.5,11.8c-3.7,2.8-12.8,3.8-15.9-2.3c-2,1.4-2.7,3.7-2.3,6.5c-0.8-0.3-4.3-5.2,0.9-9.3
		c23.8-15.4,20-41.1-0.2-51.8l-0.3-0.1c-18.3-10.5-34.3-0.9-34.3-0.9c11.3-11.3,30.8-4.6,33.6-3.2c0,0-2.2-2-3.4-3.7
		c-1.5-2.3-1.5-4.5-1.5-4.5c-7.8,4.3-9.8-2.3-9.8-2.3s-6.7,6.1-11.1,1.1c-3.8-4.3,2.4-10.2,2.4-10.2c-39.3,12.9-31.9,35.1-31.9,35.1
		s-5.7,5.2-7,17.8c-1.4,14.3,5.7,24.5,14.6,21.7c2-0.6,3.1-1.6,3.4-2.7L1492,319.9L1492,319.9z M1490.1,311.4
		c1.9-0.1,2.2-2.5,1.8-3.7c-0.4-1.5-2.9-1.7-3.5,0.2c-0.6,1.9-0.1,3.7-0.1,3.7c0.5,1.8,2.5,2.3,2.7,2.1
		C1490,312.6,1490.3,312.1,1490.1,311.4L1490.1,311.4z M1498.1,308.4c0,0-2.3,1.5,0.6,7.9c2.9,6.4,6.6,12.4,0.2,19.4
		c3.6,0,11.4-4.7,3-18.8C1500,313.7,1497.9,311.5,1498.1,308.4L1498.1,308.4z"/>
</g>
<g>
	<path class="st1" d="M179.2,227.4c21.4-2.2,41.2-13.7,47.1-33.7v51.2C219.3,232.9,203.2,227.4,179.2,227.4z M230.6,262
		c0,18.7-10.7,29.4-31.4,33.2l27.2,35.7v-15.5H265v-65.7h-36.4C229.9,253.3,230.6,257.4,230.6,262z M179.2,249.6H149v24.9h30.2
		c12.4,0,17.4-5,17.4-12.5C196.7,254.5,191.6,249.6,179.2,249.6z M259.3,227.4h44.3L259.3,180V227.4z M367.8,85.9v282.9H84.9V85.9
		H367.8z M336.7,117.1h-33l-44.3,47.2v-47.2h-64.1v62.7c0,13.4-9.9,21.2-23.1,21.2c-13.2,0-23.1-7.8-23.1-21.2v-62.7h-33v63.2
		c0,28.3,22.8,44.5,48.6,47.1h-48.6v110.3h33v-40.9h14.4l30.5,40.9h142.7v-22.3H298v-65.7h38.7v-29.1l-47.3-48.4l47.3-48.3V117.1z"
		/>
	<path class="st1" d="M425.1,85.9l-34.6-35.4h-22.7v35.4v282.9h195.4h87.5V85.9H425.1z M377.7,358.9V95.8v-9.9V60.4h8.7l25,25.5
		l6.8,6.9l2.9,3l132.3,135.5v127.6H377.7z M640.8,358.9h-77.6V227.3L434.8,95.8h205.9V358.9z"/>
</g>
</svg>
